3.0Hz3min_grf.mot
version=1
nRows=27
nColumns 19
inDegrees=yes
endheader
time	1_ground_force_vx	1_ground_force_vy	1_ground_force_vz	1_ground_force_px	1_ground_force_py	1_ground_force_pz	1_ground_torque_x	1_ground_torque_y	1_ground_torque_z	2_ground_force_vx	2_ground_force_vy	2_ground_force_vz	2_ground_force_px	2_ground_force_py	2_ground_force_pz	2_ground_torque_x	2_ground_torque_y	2_ground_torque_z
            1.251000	           17.514368	          362.096222	          -26.326234	           -0.270802	            0.006186	           -0.398195	           -0.014259	           -0.294796	            0.021433	           11.365804	          464.324979	           42.056660	           -0.257603	            0.005530	           -0.690971	           -0.006934	           -0.283285	           -0.025659
            1.251500	           16.920563	          357.767371	          -25.793035	           -0.270733	            0.006184	           -0.397891	           -0.022785	           -0.481774	            0.034733	           11.290508	          459.170192	           41.569022	           -0.257429	            0.005532	           -0.691417	           -0.007891	           -0.320924	           -0.029053
            1.252000	           16.877189	          352.356837	          -25.219984	           -0.270417	            0.006186	           -0.398212	           -0.025929	           -0.541343	            0.038747	           11.778137	          453.832731	           41.221271	           -0.257296	            0.005532	           -0.691322	           -0.010230	           -0.394176	           -0.035803
            1.252500	           16.740709	          347.849805	          -25.147254	           -0.270707	            0.006184	           -0.397903	           -0.027934	           -0.580427	            0.041961	           11.560982	          449.045550	           40.781934	           -0.257537	            0.005532	           -0.691430	           -0.008008	           -0.311035	           -0.028248
            1.253000	           16.558843	          343.341918	          -24.890988	           -0.270390	            0.006182	           -0.397445	           -0.026509	           -0.549657	            0.039848	           11.343766	          444.258872	           40.201813	           -0.257278	            0.005533	           -0.691709	           -0.005415	           -0.212064	           -0.019190
            1.253500	           16.607074	          337.751362	          -24.364792	           -0.270376	            0.006184	           -0.397728	           -0.025219	           -0.512891	            0.036999	           11.457802	          438.552780	           39.571339	           -0.257438	            0.005532	           -0.691572	           -0.004707	           -0.180158	           -0.016256
            1.254000	           16.471393	          331.981458	          -24.068195	           -0.270224	            0.006186	           -0.398176	           -0.020872	           -0.420678	            0.030499	           11.478158	          432.846183	           38.987833	           -0.257287	            0.005531	           -0.691089	           -0.005420	           -0.204395	           -0.018411
            1.254500	           16.335566	          327.653482	          -23.719557	           -0.270033	            0.006185	           -0.398011	           -0.019776	           -0.396661	            0.028715	           11.779696	          427.139931	           38.591920	           -0.257519	            0.005532	           -0.691564	           -0.007588	           -0.275142	           -0.024859
            1.255000	           15.879437	          323.144165	          -23.141617	           -0.269876	            0.006183	           -0.397449	           -0.025783	           -0.524673	            0.037574	           11.608104	          422.720867	           38.247733	           -0.257527	            0.005533	           -0.691763	           -0.006014	           -0.219007	           -0.019816
            1.255500	           15.284301	          318.637439	          -23.159461	           -0.270027	            0.006184	           -0.397710	           -0.030202	           -0.629629	            0.045763	           11.672713	          417.750560	           37.807620	           -0.257559	            0.005532	           -0.691693	           -0.005802	           -0.207636	           -0.018792
            1.256000	           15.424166	          313.948002	          -22.583773	           -0.269894	            0.006183	           -0.397550	           -0.030865	           -0.628238	            0.045192	           11.927381	          412.044307	           37.364798	           -0.257776	            0.005531	           -0.691549	           -0.005576	           -0.192640	           -0.017469
            1.256500	           15.287591	          308.720241	          -22.605848	           -0.270151	            0.006183	           -0.397643	           -0.027586	           -0.557072	            0.040791	           11.899723	          406.704483	           37.158051	           -0.257577	            0.005532	           -0.691568	           -0.002597	           -0.088774	           -0.008111
            1.257000	           15.014153	          304.212200	          -22.303497	           -0.269369	            0.006182	           -0.397365	           -0.026568	           -0.538319	            0.039467	           11.874394	          400.630774	           36.197826	           -0.257673	            0.005530	           -0.691244	           -0.003358	           -0.113285	           -0.010236
            1.257500	           14.878570	          299.162965	          -21.912096	           -0.269854	            0.006183	           -0.397627	           -0.023593	           -0.474376	            0.034745	           11.842207	          396.578992	           36.277247	           -0.257559	            0.005533	           -0.691966	           -0.002567	           -0.085981	           -0.007865
            1.258000	           14.697465	          296.095434	          -21.236943	           -0.269758	            0.006179	           -0.396604	           -0.026030	           -0.524404	            0.037612	           12.282280	          391.425898	           35.836317	           -0.257870	            0.005531	           -0.691740	           -0.005856	           -0.186613	           -0.017085
            1.258500	           14.240478	          290.686588	          -21.075570	           -0.269433	            0.006181	           -0.397035	           -0.031064	           -0.634098	            0.045974	           12.398289	          385.167551	           35.156944	           -0.257641	            0.005531	           -0.691486	           -0.007279	           -0.226115	           -0.020639
            1.259000	           14.242424	          285.637380	          -20.684510	           -0.269672	            0.006183	           -0.397445	           -0.030883	           -0.619376	            0.044852	           12.409567	          382.037144	           35.098846	           -0.257707	            0.005534	           -0.692187	           -0.006451	           -0.198598	           -0.018246
            1.259500	           13.785533	          280.949204	          -20.428334	           -0.269686	            0.006183	           -0.397645	           -0.031668	           -0.645400	            0.046928	           12.383882	          376.145065	           34.843199	           -0.257764	            0.005534	           -0.692214	           -0.005241	           -0.159176	           -0.014745
            1.260000	           13.511735	          277.162619	          -20.214603	           -0.269201	            0.006180	           -0.396780	           -0.030805	           -0.631890	            0.046086	           12.590268	          370.807822	           34.167071	           -0.257933	            0.005533	           -0.692101	           -0.004694	           -0.138255	           -0.012739
            1.260500	           13.192244	          271.934036	          -20.052799	           -0.269359	            0.006182	           -0.397318	           -0.025496	           -0.525556	            0.038755	           12.608836	          365.651973	           34.054817	           -0.257986	            0.005532	           -0.692006	           -0.004789	           -0.138880	           -0.012935
            1.261000	           12.919180	          267.245109	          -19.613655	           -0.269191	            0.006181	           -0.397003	           -0.025782	           -0.533327	            0.039142	           12.769098	          360.129918	           33.518837	           -0.257746	            0.005533	           -0.692131	           -0.005828	           -0.164372	           -0.015299
            1.261500	           12.783025	          263.458354	          -19.354410	           -0.268669	            0.006180	           -0.396729	           -0.027992	           -0.576924	            0.042382	           12.738638	          355.527828	           32.986221	           -0.257755	            0.005534	           -0.692308	           -0.006455	           -0.180168	           -0.016716
            1.262000	           12.280845	          258.228556	          -18.917015	           -0.269192	            0.006182	           -0.397204	           -0.029952	           -0.629796	            0.046137	           12.893624	          351.478624	           32.549353	           -0.257934	            0.005535	           -0.692713	           -0.007632	           -0.208054	           -0.019267
            1.262500	           12.053055	          253.540621	          -18.707264	           -0.269230	            0.006182	           -0.397205	           -0.030525	           -0.642108	            0.047377	           13.009777	          345.219046	           32.198476	           -0.257868	            0.005533	           -0.692110	           -0.005773	           -0.153200	           -0.014289
            1.263000	           11.595739	          249.934433	          -18.538162	           -0.268937	            0.006180	           -0.396754	           -0.031917	           -0.687942	            0.051026	           13.216327	          339.880463	           31.897773	           -0.258530	            0.005531	           -0.692271	           -0.008510	           -0.218849	           -0.020539
            1.263500	           11.230387	          245.426737	          -18.327296	           -0.268945	            0.006180	           -0.396933	           -0.028632	           -0.625714	            0.046725	           13.140387	          334.909588	           31.457720	           -0.258272	            0.005533	           -0.692515	           -0.004593	           -0.117050	           -0.010994
            1.264000	           10.819273	          241.099101	          -18.069688	           -0.268861	            0.006179	           -0.396540	           -0.026017	           -0.579765	            0.043452	           13.201715	          330.859712	           31.114748	           -0.258299	            0.005533	           -0.692664	           -0.005671	           -0.142130	           -0.013366
